<mxfile host="app.diagrams.net" modified="2024-06-19T18:00:18.590Z" agent="Mozilla/5.0 (Macintosh; Intel Mac OS X 10_15_7) AppleWebKit/537.36 (KHTML, like Gecko) Chrome/125.0.0.0 Safari/537.36" version="24.5.5" etag="GrViIc4TbAjXjGYaKKcG" type="github">
  <diagram name="Page-1" id="pWOiyz1yQn5MfVzzAVr3">
    <mxGraphModel>
      <root>
        <mxCell id="0" />
        <mxCell id="1" parent="0" />
      </root>
    </mxGraphModel>
  </diagram>
</mxfile>
